<?xml version="1.0" standalone="no"?>
<!DOCTYPE svg PUBLIC "-//W3C//DTD SVG 20010904//EN"
 "http://www.w3.org/TR/2001/REC-SVG-20010904/DTD/svg10.dtd">
<svg version="1.0" xmlns="http://www.w3.org/2000/svg"
 width="700.000000pt" height="700.000000pt" viewBox="0 0 700.000000 700.000000"
 preserveAspectRatio="xMidYMid meet">
<metadata>
Created by potrace 1.11, written by Peter Selinger 2001-2013
</metadata>
<g transform="translate(0.000000,700.000000) scale(0.100000,-0.100000)"
fill="#000000" stroke="none">
<path d="M2480 6129 c-19 -5 -48 -11 -64 -14 -38 -7 -128 -50 -191 -90 -61
-39 -2058 -2030 -2104 -2098 -141 -209 -159 -468 -49 -697 l41 -85 1016 -1018
c640 -642 1041 -1037 1085 -1068 263 -187 627 -160 858 64 47 46 108 120 108
133 0 4 6 15 14 23 25 29 75 178 82 242 11 99 10 118 -4 204 -17 103 -63 213
-122 289 -25 34 -373 388 -773 787 -400 400 -727 731 -727 735 0 5 334 344
743 754 408 410 751 758 762 773 62 89 109 209 122 312 31 244 -69 475 -276
638 -35 28 -149 83 -211 102 -63 19 -255 28 -310 14z"/>
<path d="M4254 6126 c-158 -36 -309 -133 -398 -255 -57 -79 -109 -186 -121
-252 -3 -13 -7 -36 -10 -50 -8 -37 -9 -157 -1 -209 15 -99 57 -202 119 -292
17 -27 366 -382 773 -789 l742 -742 -727 -727 c-400 -399 -747 -751 -770 -780
-60 -76 -110 -179 -126 -261 -3 -13 -8 -37 -11 -54 -12 -61 -5 -191 15 -266
104 -401 532 -618 914 -463 51 20 160 87 194 118 6 6 457 456 1003 1001 717
716 1004 1009 1038 1060 68 102 102 206 109 335 8 163 -29 297 -118 426 -31
45 -1925 1947 -2039 2047 -82 73 -190 127 -301 153 -56 13 -226 13 -285 0z"/>
</g>
</svg>
